<svg xmlns="http://www.w3.org/2000/svg" viewBox="0 11.520000457763672 165.28273010253906 37.70000076293945" data-asc="0.9462890625" width="165.28273010253906" height="37.70000076293945"><defs/><g fill="#49d31a"><g transform="translate(0, 0)"><path d="M12.84 41.16Q12.84 43.24 13.49 44.30Q14.14 45.36 15.65 45.36Q16.60 45.36 17.58 44.75Q18.55 44.14 19.48 43.01Q20.41 41.87 21.20 40.27Q22.00 38.67 22.61 36.71Q23.22 34.74 23.56 32.45Q23.90 30.15 23.90 27.66Q23.90 25.15 23.35 22.90Q22.80 20.65 21.64 18.98Q20.48 17.31 18.69 16.33Q16.89 15.36 14.40 15.36Q12.33 15.36 10.74 15.82Q9.16 16.28 8.00 17.10Q6.84 17.92 6.04 19.02Q5.25 20.12 4.77 21.37Q4.30 22.63 4.10 23.99Q3.91 25.34 3.91 26.66Q3.91 28.47 4.28 29.88Q4.66 31.30 5.14 32.29Q5.62 33.28 6.04 33.81Q6.47 34.35 6.54 34.42Q6.96 34.30 7.13 34.52Q7.30 34.74 7.30 35.11Q7.30 35.60 7.09 36.12Q6.88 36.65 6.54 37.07Q6.20 37.50 5.77 37.78Q5.35 38.06 4.91 38.06Q4.71 38.06 4.53 38.01Q4.35 37.96 4.15 37.82Q4.10 37.79 3.78 37.46Q3.47 37.13 3.00 36.52Q2.54 35.91 2.01 35.00Q1.49 34.08 1.04 32.89Q0.59 31.69 0.29 30.20Q0 28.71 0 26.95Q0 23.56 1.04 20.72Q2.08 17.87 3.98 15.83Q5.88 13.79 8.57 12.66Q11.25 11.52 14.55 11.52Q18.04 11.52 20.57 12.85Q23.10 14.18 24.72 16.38Q26.34 18.58 27.12 21.41Q27.91 24.24 27.91 27.27Q27.91 30.81 27.36 33.81Q26.81 36.82 25.87 39.26Q24.93 41.70 23.68 43.57Q22.44 45.43 21.04 46.69Q19.65 47.95 18.19 48.58Q16.72 49.22 15.36 49.22Q13.60 49.22 12.37 48.67Q11.13 48.12 10.38 47.06Q9.62 46.00 9.28 44.45Q8.94 42.90 8.94 40.92L8.94 21.75Q8.94 21.04 8.84 20.74Q8.74 20.43 8.74 20.17Q8.74 19.78 9.13 19.54Q9.52 19.31 10.06 19.31Q11.30 19.31 12.07 19.96Q12.84 20.61 12.84 21.51L12.84 41.16ZM33.94 23.27Q33.33 23.27 32.78 23.02Q32.23 22.78 31.82 22.36Q31.42 21.95 31.18 21.40Q30.93 20.85 30.93 20.21Q30.93 19.56 31.18 18.99Q31.42 18.43 31.82 18.03Q32.23 17.63 32.78 17.40Q33.33 17.16 33.94 17.16Q34.59 17.16 35.16 17.40Q35.72 17.63 36.12 18.03Q36.52 18.43 36.76 18.99Q36.99 19.56 36.99 20.21Q36.99 20.85 36.76 21.40Q36.52 21.95 36.12 22.36Q35.72 22.78 35.16 23.02Q34.59 23.27 33.94 23.27M35.08 43.12Q35.08 43.29 35.11 43.66Q35.13 44.04 35.25 44.43Q35.38 44.82 35.64 45.12Q35.91 45.41 36.40 45.41Q37.13 45.41 37.68 44.87Q38.23 44.34 38.64 43.53Q39.04 42.72 39.31 41.78Q39.58 40.84 39.75 40.01Q39.89 39.26 40.20 38.92Q40.50 38.57 40.86 38.54Q41.21 38.50 41.56 38.72Q41.92 38.94 42.20 39.29Q42.48 39.65 42.61 40.09Q42.75 40.53 42.65 40.92Q42.31 42.16 41.76 43.53Q41.21 44.90 40.36 46.04Q39.50 47.19 38.31 47.95Q37.11 48.71 35.50 48.71Q34.50 48.71 33.72 48.33Q32.93 47.95 32.40 47.31Q31.86 46.68 31.58 45.83Q31.30 44.97 31.30 44.02L31.30 30.66Q31.30 29.96 31.19 29.64Q31.08 29.32 31.08 29.05Q31.08 28.69 31.47 28.45Q31.86 28.22 32.40 28.22Q33.64 28.22 34.36 28.87Q35.08 29.52 35.08 30.42L35.08 43.12ZM42.77 40.45Q42.58 41.24 42.04 41.42Q41.50 41.60 40.98 41.38Q40.45 41.16 40.10 40.63Q39.75 40.09 39.89 39.45Q40.26 37.79 40.95 35.78Q41.65 33.76 42.33 31.76Q41.97 31.20 41.75 30.63Q41.53 30.05 41.53 29.42Q41.53 28.78 42.00 28.09Q42.48 27.39 43.15 26.81Q43.82 26.22 44.54 25.84Q45.26 25.46 45.78 25.46Q46.68 25.46 47.13 26.07Q47.58 26.68 47.58 27.71Q47.58 28.27 47.40 28.82Q47.22 29.37 47.00 29.85Q46.78 30.32 46.59 30.66Q46.41 31.01 46.39 31.10Q47.27 32.67 48.22 33.86Q49.17 35.06 49.96 36.23Q50.76 37.40 51.27 38.72Q51.78 40.04 51.78 41.82Q51.78 42.26 51.72 42.72Q51.66 43.19 51.54 43.60Q52.42 43.43 53.09 43.07Q53.76 42.70 54.26 42.22Q54.76 41.75 55.09 41.19Q55.42 40.63 55.64 40.01Q55.91 39.31 56.18 38.99Q56.45 38.67 56.79 38.67Q57.10 38.67 57.43 38.88Q57.76 39.09 58.02 39.40Q58.28 39.72 58.44 40.06Q58.59 40.41 58.59 40.67Q58.59 41.04 58.40 41.55Q58.20 42.07 57.87 42.60Q57.54 43.14 57.13 43.64Q56.71 44.14 56.27 44.51Q55.10 45.46 53.52 46.11Q51.93 46.75 49.58 46.92Q48.68 47.71 47.45 48.21Q46.22 48.71 44.68 48.71Q43.90 48.71 43.08 48.51Q42.26 48.32 41.52 48.01Q40.77 47.71 40.16 47.34Q39.55 46.97 39.18 46.61Q38.26 45.73 37.99 44.84Q37.72 43.95 37.85 43.24Q37.99 42.53 38.38 42.08Q38.77 41.63 39.18 41.63Q39.43 41.63 39.95 41.83Q40.48 42.04 41.16 42.37Q41.85 42.70 42.65 43.07Q43.46 43.43 44.26 43.76Q45.07 44.09 45.84 44.30Q46.61 44.51 47.24 44.51Q47.66 44.02 48.00 43.21Q48.34 42.41 48.34 41.46Q48.34 40.28 48.02 39.28Q47.71 38.28 47.19 37.43Q46.68 36.57 46.03 35.83Q45.39 35.08 44.73 34.42Q44.14 35.86 43.70 37.27Q43.26 38.67 42.77 40.45ZM63.87 48.71Q62.21 48.71 60.64 48.10Q59.08 47.49 57.87 46.29Q56.67 45.09 55.94 43.33Q55.22 41.58 55.22 39.26Q55.22 37.11 55.83 35.03Q56.45 32.96 57.52 31.34Q58.59 29.71 60.10 28.71Q61.60 27.71 63.38 27.71Q64.67 27.71 65.58 28.23Q66.48 28.76 67.04 29.50Q67.60 30.25 67.86 31.10Q68.12 31.96 68.12 32.62Q68.12 33.11 67.86 33.50Q67.60 33.89 67.24 34.16Q66.87 34.42 66.43 34.56Q65.99 34.69 65.65 34.67Q65.31 34.64 65.10 34.42Q64.89 34.20 64.97 33.76Q64.87 33.45 64.78 32.98Q64.70 32.52 64.49 32.09Q64.28 31.67 63.92 31.36Q63.55 31.05 62.92 31.05Q62.23 31.05 61.58 31.70Q60.94 32.35 60.44 33.47Q59.94 34.59 59.63 36.08Q59.33 37.57 59.33 39.26Q59.33 40.75 59.70 41.89Q60.08 43.04 60.77 43.82Q61.45 44.60 62.39 45.01Q63.33 45.41 64.43 45.41Q65.89 45.41 66.98 44.86Q68.07 44.31 68.82 43.41Q69.58 42.50 70.04 41.38Q70.51 40.26 70.73 39.11Q70.90 38.28 71.42 38.00Q71.95 37.72 72.50 37.87Q73.05 38.01 73.45 38.49Q73.85 38.96 73.78 39.62Q73.68 40.38 73.43 41.36Q73.17 42.33 72.68 43.33Q72.19 44.34 71.45 45.30Q70.70 46.26 69.63 47.02Q68.55 47.78 67.13 48.24Q65.70 48.71 63.87 48.71ZM81.62 48.71Q80.74 48.71 79.82 48.44Q78.91 48.17 78.16 47.51Q77.42 46.85 76.94 45.76Q76.46 44.68 76.46 43.02Q76.46 40.60 77.11 37.90Q77.76 35.21 78.98 31.96L75.17 31.96L74.61 31.96Q74.58 32.69 74.52 33.81Q74.46 34.94 74.32 36.21Q74.17 37.48 73.94 38.77Q73.71 40.06 73.36 41.16Q73.12 41.94 72.60 42.07Q72.07 42.19 71.56 41.88Q71.04 41.58 70.73 40.99Q70.41 40.41 70.58 39.77Q70.78 39.01 70.92 37.93Q71.07 36.84 71.15 35.63Q71.24 34.42 71.29 33.22Q71.34 32.01 71.36 31.05Q70.43 30.54 69.82 29.75Q69.21 28.96 69.21 27.86Q69.21 27.34 69.42 26.92Q69.63 26.49 69.97 26.18Q70.31 25.88 70.78 25.72Q71.24 25.56 71.73 25.56Q72.17 25.56 72.64 25.68Q73.12 25.81 73.55 26.12Q73.97 26.44 74.32 26.95Q74.66 27.47 74.88 28.22Q75.49 28.30 75.92 28.33Q76.34 28.37 76.64 28.39Q76.93 28.42 77.12 28.42Q77.32 28.42 77.51 28.42L80.13 28.42Q80.35 28.42 80.77 28.69Q81.20 28.96 81.62 29.38Q82.03 29.81 82.31 30.30Q82.59 30.79 82.52 31.23Q82.52 31.37 82.35 31.93Q82.18 32.50 81.93 33.35Q81.69 34.20 81.40 35.31Q81.10 36.43 80.86 37.65Q80.62 38.87 80.44 40.17Q80.27 41.48 80.27 42.72Q80.27 43.24 80.40 43.73Q80.52 44.21 80.76 44.59Q81.01 44.97 81.38 45.19Q81.76 45.41 82.28 45.41Q83.13 45.41 83.74 44.87Q84.35 44.34 84.77 43.53Q85.18 42.72 85.44 41.78Q85.69 40.84 85.86 40.01Q86.01 39.23 86.35 38.88Q86.69 38.53 87.06 38.53Q87.35 38.53 87.67 38.71Q87.99 38.89 88.24 39.18Q88.50 39.48 88.66 39.84Q88.82 40.21 88.82 40.58Q88.82 40.70 88.79 40.77Q88.77 40.84 88.77 40.92Q88.43 42.16 87.88 43.53Q87.33 44.90 86.47 46.04Q85.62 47.19 84.42 47.95Q83.23 48.71 81.62 48.71ZM97.58 32.76Q97.58 34.16 97.11 35.62Q96.63 37.08 95.69 38.39Q94.75 39.70 93.37 40.73Q91.99 41.77 90.19 42.31Q90.43 42.94 90.83 43.52Q91.24 44.09 91.80 44.51Q92.36 44.92 93.10 45.17Q93.85 45.41 94.82 45.41Q96.29 45.41 97.34 44.86Q98.39 44.31 99.11 43.41Q99.83 42.50 100.27 41.38Q100.71 40.26 100.93 39.11Q101.10 38.28 101.62 38.00Q102.15 37.72 102.70 37.87Q103.25 38.01 103.65 38.49Q104.05 38.96 103.98 39.62Q103.88 40.38 103.65 41.36Q103.42 42.33 102.95 43.33Q102.49 44.34 101.77 45.30Q101.05 46.26 100 47.02Q98.95 47.78 97.53 48.24Q96.12 48.71 94.29 48.71Q92.58 48.71 90.98 48.03Q89.38 47.36 88.15 46.11Q86.91 44.85 86.17 43.01Q85.42 41.16 85.42 38.82Q85.42 36.45 86.08 34.41Q86.74 32.37 87.82 30.88Q88.89 29.39 90.26 28.55Q91.63 27.71 93.07 27.71Q94.12 27.71 94.96 28.08Q95.80 28.44 96.39 29.11Q96.97 29.79 97.28 30.71Q97.58 31.64 97.58 32.76M89.53 38.67Q89.53 38.89 89.55 39.11Q89.58 39.33 89.58 39.58Q90.50 39.14 91.26 38.45Q92.02 37.77 92.55 36.89Q93.09 36.01 93.38 34.97Q93.68 33.94 93.68 32.81Q93.68 31.98 93.40 31.52Q93.12 31.05 92.63 31.05Q92.02 31.05 91.54 31.47Q91.06 31.88 90.71 32.56Q90.36 33.23 90.12 34.07Q89.89 34.91 89.75 35.77Q89.60 36.62 89.55 37.39Q89.50 38.16 89.53 38.67ZM96.41 23.80Q96.97 23.85 97.66 23.88Q98.24 23.93 99.07 23.94Q99.90 23.95 100.93 23.97L100.93 15.50Q100.93 14.97 100.84 14.65Q100.76 14.33 100.67 14.15Q100.59 13.96 100.50 13.85Q100.42 13.75 100.42 13.62Q100.42 13.48 100.56 13.38Q100.71 13.28 100.95 13.21Q101.20 13.13 101.48 13.10Q101.76 13.06 102.03 13.06Q103.27 13.06 103.99 13.71Q104.71 14.36 104.71 15.26L104.71 24.02Q107.01 24.02 109.56 23.97Q112.11 23.93 114.67 23.80Q115.01 23.44 115.22 23.54Q115.43 23.63 115.49 24.00Q115.55 24.37 115.50 24.90Q115.45 25.44 115.31 25.94Q115.16 26.44 114.90 26.81Q114.65 27.17 114.33 27.17Q111.33 27.25 109.02 27.26Q106.71 27.27 104.71 27.27L104.71 43.12Q104.71 44.34 105.18 44.87Q105.64 45.41 106.42 45.41Q107.18 45.41 107.73 44.87Q108.28 44.34 108.68 43.53Q109.08 42.72 109.34 41.78Q109.59 40.84 109.77 40.01Q109.91 39.23 110.25 38.88Q110.60 38.53 110.96 38.53Q111.25 38.53 111.57 38.71Q111.89 38.89 112.15 39.18Q112.40 39.48 112.56 39.84Q112.72 40.21 112.72 40.58Q112.72 40.63 112.72 40.70Q112.72 40.77 112.67 40.92Q112.35 42.16 111.80 43.53Q111.25 44.90 110.39 46.04Q109.52 47.19 108.33 47.95Q107.13 48.71 105.52 48.71Q104.52 48.71 103.67 48.40Q102.83 48.10 102.22 47.42Q101.61 46.75 101.27 45.70Q100.93 44.65 100.93 43.16L100.93 27.27Q100.10 27.27 99.45 27.26Q98.80 27.25 98.36 27.22Q97.85 27.20 97.46 27.17Q96.88 27.17 96.42 26.65Q95.97 26.12 95.79 25.49Q95.61 24.85 95.74 24.33Q95.87 23.80 96.41 23.80ZM121.48 32.76Q121.48 34.16 121.01 35.62Q120.53 37.08 119.59 38.39Q118.65 39.70 117.27 40.73Q115.89 41.77 114.09 42.31Q114.33 42.94 114.73 43.52Q115.14 44.09 115.70 44.51Q116.26 44.92 117.00 45.17Q117.75 45.41 118.73 45.41Q120.19 45.41 121.24 44.86Q122.29 44.31 123.01 43.41Q123.73 42.50 124.17 41.38Q124.61 40.26 124.83 39.11Q125 38.28 125.52 38.00Q126.05 37.72 126.60 37.87Q127.15 38.01 127.55 38.49Q127.95 38.96 127.88 39.62Q127.78 40.38 127.55 41.36Q127.32 42.33 126.86 43.33Q126.39 44.34 125.67 45.30Q124.95 46.26 123.90 47.02Q122.85 47.78 121.44 48.24Q120.02 48.71 118.19 48.71Q116.48 48.71 114.88 48.03Q113.28 47.36 112.05 46.11Q110.82 44.85 110.07 43.01Q109.33 41.16 109.33 38.82Q109.33 36.45 109.99 34.41Q110.64 32.37 111.72 30.88Q112.79 29.39 114.16 28.55Q115.53 27.71 116.97 27.71Q118.02 27.71 118.86 28.08Q119.70 28.44 120.29 29.11Q120.87 29.79 121.18 30.71Q121.48 31.64 121.48 32.76M113.43 38.67Q113.43 38.89 113.45 39.11Q113.48 39.33 113.48 39.58Q114.40 39.14 115.16 38.45Q115.92 37.77 116.46 36.89Q116.99 36.01 117.29 34.97Q117.58 33.94 117.58 32.81Q117.58 31.98 117.30 31.52Q117.02 31.05 116.53 31.05Q115.92 31.05 115.44 31.47Q114.97 31.88 114.61 32.56Q114.26 33.23 114.03 34.07Q113.79 34.91 113.65 35.77Q113.50 36.62 113.45 37.39Q113.40 38.16 113.43 38.67ZM128.61 32.52Q128.88 32.01 129.14 31.14Q129.39 30.27 129.63 29.22Q129.86 28.17 130.05 27.03Q130.25 25.88 130.40 24.78Q130.54 23.68 130.63 22.72Q130.71 21.75 130.71 21.07Q130.71 18.58 130.35 17.42Q129.98 16.26 129.37 16.26Q129.17 16.26 129.03 16.46Q128.88 16.65 128.78 16.96Q128.69 17.26 128.65 17.61Q128.61 17.97 128.61 18.26L128.61 32.52M135.72 40.06Q135.86 39.33 136.17 39.00Q136.47 38.67 136.83 38.64Q137.18 38.60 137.55 38.81Q137.92 39.01 138.18 39.36Q138.45 39.70 138.59 40.12Q138.72 40.55 138.62 40.97Q138.28 41.97 137.65 43.31Q137.01 44.65 136.04 45.85Q135.06 47.05 133.74 47.88Q132.42 48.71 130.71 48.71Q129.27 48.71 128.17 48.23Q127.08 47.75 126.33 46.89Q125.59 46.02 125.21 44.81Q124.83 43.60 124.83 42.11L124.83 19.36Q124.83 17.97 125.18 16.78Q125.54 15.60 126.16 14.76Q126.78 13.92 127.61 13.44Q128.44 12.96 129.37 12.96Q130.47 12.96 131.23 13.37Q131.98 13.77 132.47 14.43Q132.96 15.09 133.24 15.94Q133.52 16.80 133.64 17.69Q133.76 18.58 133.79 19.45Q133.81 20.31 133.81 21.02Q133.81 22.85 133.47 24.87Q133.13 26.88 132.60 28.83Q132.08 30.79 131.46 32.58Q130.83 34.38 130.26 35.77Q129.69 37.16 129.24 38.04Q128.78 38.92 128.61 39.06L128.61 41.97Q128.61 43.48 129.25 44.45Q129.88 45.41 131.27 45.41Q132.13 45.41 132.87 44.89Q133.62 44.36 134.19 43.57Q134.77 42.77 135.16 41.83Q135.55 40.89 135.72 40.06ZM147.34 32.76Q147.34 34.16 146.86 35.62Q146.39 37.08 145.45 38.39Q144.51 39.70 143.13 40.73Q141.75 41.77 139.94 42.31Q140.19 42.94 140.59 43.52Q140.99 44.09 141.55 44.51Q142.11 44.92 142.86 45.17Q143.60 45.41 144.58 45.41Q146.04 45.41 147.09 44.86Q148.14 44.31 148.86 43.41Q149.58 42.50 150.02 41.38Q150.46 40.26 150.68 39.11Q150.85 38.28 151.38 38.00Q151.90 37.72 152.45 37.87Q153.00 38.01 153.41 38.49Q153.81 38.96 153.74 39.62Q153.64 40.38 153.41 41.36Q153.17 42.33 152.71 43.33Q152.25 44.34 151.53 45.30Q150.81 46.26 149.76 47.02Q148.71 47.78 147.29 48.24Q145.87 48.71 144.04 48.71Q142.33 48.71 140.73 48.03Q139.14 47.36 137.90 46.11Q136.67 44.85 135.93 43.01Q135.18 41.16 135.18 38.82Q135.18 36.45 135.84 34.41Q136.50 32.37 137.57 30.88Q138.65 29.39 140.01 28.55Q141.38 27.71 142.82 27.71Q143.87 27.71 144.71 28.08Q145.56 28.44 146.14 29.11Q146.73 29.79 147.03 30.71Q147.34 31.64 147.34 32.76M139.28 38.67Q139.28 38.89 139.31 39.11Q139.33 39.33 139.33 39.58Q140.26 39.14 141.02 38.45Q141.77 37.77 142.31 36.89Q142.85 36.01 143.14 34.97Q143.43 33.94 143.43 32.81Q143.43 31.98 143.15 31.52Q142.87 31.05 142.38 31.05Q141.77 31.05 141.30 31.47Q140.82 31.88 140.47 32.56Q140.11 33.23 139.88 34.07Q139.65 34.91 139.50 35.77Q139.36 36.62 139.31 37.39Q139.26 38.16 139.28 38.67ZM146.17 23.80Q146.73 23.85 147.41 23.88Q148.00 23.93 148.83 23.94Q149.66 23.95 150.68 23.97L150.68 15.50Q150.68 14.97 150.60 14.65Q150.51 14.33 150.43 14.15Q150.34 13.96 150.26 13.85Q150.17 13.75 150.17 13.62Q150.17 13.48 150.32 13.38Q150.46 13.28 150.71 13.21Q150.95 13.13 151.23 13.10Q151.51 13.06 151.78 13.06Q153.03 13.06 153.75 13.71Q154.47 14.36 154.47 15.26L154.47 24.02Q156.76 24.02 159.31 23.97Q161.87 23.93 164.43 23.80Q164.77 23.44 164.98 23.54Q165.19 23.63 165.25 24.00Q165.31 24.37 165.26 24.90Q165.21 25.44 165.06 25.94Q164.92 26.44 164.66 26.81Q164.40 27.17 164.09 27.17Q161.08 27.25 158.78 27.26Q156.47 27.27 154.47 27.27L154.47 43.12Q154.47 44.34 154.93 44.87Q155.40 45.41 156.18 45.41Q156.93 45.41 157.48 44.87Q158.03 44.34 158.44 43.53Q158.84 42.72 159.09 41.78Q159.35 40.84 159.52 40.01Q159.67 39.23 160.01 38.88Q160.35 38.53 160.72 38.53Q161.01 38.53 161.33 38.71Q161.65 38.89 161.90 39.18Q162.16 39.48 162.32 39.84Q162.48 40.21 162.48 40.58Q162.48 40.63 162.48 40.70Q162.48 40.77 162.43 40.92Q162.11 42.16 161.56 43.53Q161.01 44.90 160.14 46.04Q159.28 47.19 158.08 47.95Q156.88 48.71 155.27 48.71Q154.27 48.71 153.43 48.40Q152.59 48.10 151.98 47.42Q151.37 46.75 151.03 45.70Q150.68 44.65 150.68 43.16L150.68 27.27Q149.85 27.27 149.21 27.26Q148.56 27.25 148.12 27.22Q147.61 27.20 147.22 27.17Q146.63 27.17 146.18 26.65Q145.73 26.12 145.54 25.49Q145.36 24.85 145.50 24.33Q145.63 23.80 146.17 23.80Z"/></g></g></svg>